<?xml version="1.0" encoding="UTF-8" standalone="no"?>
<svg
  xmlns:svg="http://www.w3.org/2000/svg"
  xmlns="http://www.w3.org/2000/svg"
  xmlns:xlink="http://www.w3.org/1999/xlink"
  xmlns:editor="http://www.4d.com/2014/editor"
  width="24"
  height="24"
  viewport-fill="#FF00FF"
  viewport-fill-opacity="0">

    <path
      transform="translate(1,10)"
      id="path-shadow"
      fill="none"
      d="M1,10
      c7-1.2,13.2-4,16.2-9
      c1-2.2,1.2-5.5-1-6.3
      c-0.8-0.3-1.7-0.2-2.6,0.1
      c-3.7,1.3-5.9,5.5-5.4,9.4
      c0.5,3.9,3.5,7.2,7.2,8.5"
      stroke-width="2"
      stroke="#CCCCCC" />

	<path
    transform="translate(0,9)"
    id="path"
    fill="none"
    d="M1,10
    c7-1.2,13.2-4,16.2-9
    c1-2.2,1.2-5.5-1-6.3
    c-0.8-0.3-1.7-0.2-2.6,0.1
    c-3.7,1.3-5.9,5.5-5.4,9.4
    c0.5,3.9,3.5,7.2,7.2,8.5"
    stroke-width="2"
    stroke="#61B329" />

</svg>
